<svg width="300" height="300" viewBox="0 0 300 300" fill="none" xmlns="http://www.w3.org/2000/svg">
<rect width="300" height="300" fill="#B67342"/>
<path d="M84.88 143.04C84.6933 142.853 84.3467 142.6 83.84 142.28C83.36 141.96 82.76 141.653 82.04 141.36C81.3467 141.067 80.5867 140.813 79.76 140.6C78.9333 140.36 78.0933 140.24 77.24 140.24C75.7467 140.24 74.6133 140.52 73.84 141.08C73.0933 141.64 72.72 142.427 72.72 143.44C72.72 144.213 72.96 144.827 73.44 145.28C73.92 145.733 74.64 146.12 75.6 146.44C76.56 146.76 77.76 147.107 79.2 147.48C81.0667 147.933 82.68 148.493 84.04 149.16C85.4267 149.8 86.48 150.653 87.2 151.72C87.9467 152.76 88.32 154.147 88.32 155.88C88.32 157.4 88.04 158.707 87.48 159.8C86.92 160.867 86.1467 161.733 85.16 162.4C84.1733 163.067 83.0533 163.56 81.8 163.88C80.5467 164.173 79.2133 164.32 77.8 164.32C76.3867 164.32 74.9733 164.173 73.56 163.88C72.1467 163.587 70.7867 163.173 69.48 162.64C68.1733 162.08 66.9733 161.413 65.88 160.64L68.32 155.88C68.56 156.12 68.9867 156.44 69.6 156.84C70.2133 157.213 70.96 157.6 71.84 158C72.72 158.373 73.68 158.693 74.72 158.96C75.76 159.227 76.8133 159.36 77.88 159.36C79.3733 159.36 80.5067 159.107 81.28 158.6C82.0533 158.093 82.44 157.373 82.44 156.44C82.44 155.587 82.1333 154.92 81.52 154.44C80.9067 153.96 80.0533 153.547 78.96 153.2C77.8667 152.827 76.5733 152.427 75.08 152C73.2933 151.493 71.8 150.933 70.6 150.32C69.4 149.68 68.5067 148.88 67.92 147.92C67.3333 146.96 67.04 145.76 67.04 144.32C67.04 142.373 67.4933 140.747 68.4 139.44C69.3333 138.107 70.5867 137.107 72.16 136.44C73.7333 135.747 75.48 135.4 77.4 135.4C78.7333 135.4 79.9867 135.547 81.16 135.84C82.36 136.133 83.48 136.52 84.52 137C85.56 137.48 86.4933 138 87.32 138.56L84.88 143.04ZM113.614 164.4C111.987 164.4 110.547 164.04 109.294 163.32C108.067 162.573 107.107 161.573 106.414 160.32V172.52H101.054V143.04H105.734V146.64C106.534 145.413 107.547 144.453 108.774 143.76C110.001 143.04 111.401 142.68 112.974 142.68C114.387 142.68 115.681 142.96 116.854 143.52C118.054 144.08 119.094 144.867 119.974 145.88C120.854 146.867 121.534 148.013 122.014 149.32C122.521 150.6 122.774 151.987 122.774 153.48C122.774 155.507 122.374 157.347 121.574 159C120.801 160.653 119.721 161.973 118.334 162.96C116.974 163.92 115.401 164.4 113.614 164.4ZM111.814 159.84C112.641 159.84 113.387 159.667 114.054 159.32C114.721 158.973 115.294 158.507 115.774 157.92C116.281 157.307 116.654 156.627 116.894 155.88C117.161 155.107 117.294 154.307 117.294 153.48C117.294 152.6 117.147 151.787 116.854 151.04C116.587 150.293 116.187 149.64 115.654 149.08C115.121 148.493 114.494 148.04 113.774 147.72C113.081 147.4 112.321 147.24 111.494 147.24C110.987 147.24 110.467 147.333 109.934 147.52C109.427 147.68 108.934 147.92 108.454 148.24C107.974 148.56 107.547 148.933 107.174 149.36C106.827 149.787 106.574 150.253 106.414 150.76V155.68C106.734 156.453 107.161 157.16 107.694 157.8C108.254 158.44 108.894 158.947 109.614 159.32C110.334 159.667 111.067 159.84 111.814 159.84ZM145.286 164.4C143.579 164.4 142.046 164.12 140.686 163.56C139.326 162.973 138.166 162.173 137.206 161.16C136.272 160.147 135.552 158.987 135.046 157.68C134.539 156.373 134.286 155 134.286 153.56C134.286 152.093 134.539 150.707 135.046 149.4C135.552 148.093 136.272 146.933 137.206 145.92C138.166 144.907 139.326 144.12 140.686 143.56C142.046 142.973 143.579 142.68 145.286 142.68C146.992 142.68 148.512 142.973 149.846 143.56C151.206 144.12 152.366 144.907 153.326 145.92C154.286 146.933 155.006 148.093 155.486 149.4C155.992 150.707 156.246 152.093 156.246 153.56C156.246 155 155.992 156.373 155.486 157.68C155.006 158.987 154.286 160.147 153.326 161.16C152.392 162.173 151.246 162.973 149.886 163.56C148.526 164.12 146.992 164.4 145.286 164.4ZM139.806 153.56C139.806 154.787 140.046 155.88 140.526 156.84C141.006 157.773 141.659 158.507 142.486 159.04C143.312 159.573 144.246 159.84 145.286 159.84C146.299 159.84 147.219 159.573 148.046 159.04C148.872 158.48 149.526 157.733 150.006 156.8C150.512 155.84 150.766 154.747 150.766 153.52C150.766 152.32 150.512 151.24 150.006 150.28C149.526 149.32 148.872 148.573 148.046 148.04C147.219 147.507 146.299 147.24 145.286 147.24C144.246 147.24 143.312 147.52 142.486 148.08C141.659 148.613 141.006 149.36 140.526 150.32C140.046 151.253 139.806 152.333 139.806 153.56ZM181.543 147.68C179.917 147.68 178.463 148 177.183 148.64C175.903 149.253 174.983 150.147 174.423 151.32V164H169.063V143.04H173.983V147.52C174.73 146.08 175.677 144.947 176.823 144.12C177.97 143.293 179.183 142.84 180.463 142.76C180.757 142.76 180.983 142.76 181.143 142.76C181.303 142.76 181.437 142.773 181.543 142.8V147.68ZM206.292 162.92C205.839 163.107 205.292 163.32 204.652 163.56C204.012 163.8 203.319 163.987 202.572 164.12C201.852 164.28 201.119 164.36 200.372 164.36C199.386 164.36 198.479 164.187 197.652 163.84C196.826 163.493 196.159 162.947 195.652 162.2C195.172 161.427 194.932 160.427 194.932 159.2V147.16H192.172V143.04H194.932V136.24H200.292V143.04H204.692V147.16H200.292V157.4C200.319 158.12 200.519 158.64 200.892 158.96C201.266 159.28 201.732 159.44 202.292 159.44C202.852 159.44 203.399 159.347 203.932 159.16C204.466 158.973 204.892 158.813 205.212 158.68L206.292 162.92ZM226.004 164.4C224.217 164.4 222.51 164.107 220.884 163.52C219.257 162.933 217.857 162.067 216.684 160.92L218.604 157.44C219.857 158.453 221.084 159.2 222.284 159.68C223.51 160.16 224.684 160.4 225.804 160.4C226.844 160.4 227.67 160.213 228.284 159.84C228.924 159.467 229.244 158.907 229.244 158.16C229.244 157.653 229.07 157.267 228.724 157C228.377 156.707 227.87 156.453 227.204 156.24C226.564 156.027 225.777 155.787 224.844 155.52C223.297 155.013 222.004 154.52 220.964 154.04C219.924 153.56 219.137 152.96 218.604 152.24C218.097 151.493 217.844 150.547 217.844 149.4C217.844 148.013 218.19 146.827 218.884 145.84C219.604 144.827 220.59 144.04 221.844 143.48C223.124 142.92 224.617 142.64 226.324 142.64C227.817 142.64 229.23 142.88 230.564 143.36C231.897 143.813 233.11 144.56 234.204 145.6L232.044 149C230.977 148.173 229.964 147.573 229.004 147.2C228.044 146.8 227.07 146.6 226.084 146.6C225.524 146.6 224.99 146.667 224.484 146.8C224.004 146.933 223.604 147.16 223.284 147.48C222.99 147.773 222.844 148.2 222.844 148.76C222.844 149.267 222.977 149.667 223.244 149.96C223.537 150.227 223.964 150.467 224.524 150.68C225.11 150.893 225.817 151.133 226.644 151.4C228.324 151.88 229.737 152.373 230.884 152.88C232.057 153.387 232.937 154.013 233.524 154.76C234.11 155.48 234.404 156.48 234.404 157.76C234.404 159.84 233.644 161.467 232.124 162.64C230.604 163.813 228.564 164.4 226.004 164.4Z" fill="white"/>
</svg>
