<svg width="300" height="300" viewBox="0 0 300 300" fill="none" xmlns="http://www.w3.org/2000/svg">
<rect width="300" height="300" fill="#B67342"/>
<path d="M33.68 135.68H38.8L42.04 145.08L45.32 135.68H50.4L45.52 148.6L49.12 157.64L57.16 135.6H63.16L51.8 164H47.04L42.04 152.08L37.08 164H32.32L21 135.6H26.92L35 157.64L38.52 148.6L33.68 135.68ZM81.6569 164.4C79.9769 164.4 78.4569 164.12 77.0969 163.56C75.7369 162.973 74.5769 162.187 73.6169 161.2C72.6569 160.187 71.9102 159.04 71.3769 157.76C70.8702 156.453 70.6169 155.08 70.6169 153.64C70.6169 151.64 71.0569 149.813 71.9369 148.16C72.8435 146.507 74.1235 145.187 75.7769 144.2C77.4569 143.187 79.4302 142.68 81.6969 142.68C83.9902 142.68 85.9502 143.187 87.5769 144.2C89.2035 145.187 90.4435 146.507 91.2969 148.16C92.1769 149.787 92.6169 151.547 92.6169 153.44C92.6169 153.76 92.6035 154.093 92.5769 154.44C92.5502 154.76 92.5235 155.027 92.4969 155.24H76.2969C76.4035 156.307 76.7102 157.24 77.2169 158.04C77.7502 158.84 78.4169 159.453 79.2169 159.88C80.0435 160.28 80.9235 160.48 81.8569 160.48C82.9235 160.48 83.9235 160.227 84.8569 159.72C85.8169 159.187 86.4702 158.493 86.8169 157.64L91.4169 158.92C90.9102 159.987 90.1769 160.933 89.2169 161.76C88.2835 162.587 87.1769 163.24 85.8969 163.72C84.6169 164.173 83.2035 164.4 81.6569 164.4ZM76.1769 151.84H87.1369C87.0302 150.773 86.7235 149.853 86.2169 149.08C85.7369 148.28 85.0969 147.667 84.2969 147.24C83.4969 146.787 82.6035 146.56 81.6169 146.56C80.6569 146.56 79.7769 146.787 78.9769 147.24C78.2035 147.667 77.5635 148.28 77.0569 149.08C76.5769 149.853 76.2835 150.773 76.1769 151.84ZM103.802 153.52C103.802 151.493 104.202 149.667 105.002 148.04C105.802 146.387 106.909 145.08 108.322 144.12C109.736 143.16 111.349 142.68 113.162 142.68C114.709 142.68 116.096 143.067 117.322 143.84C118.576 144.587 119.549 145.547 120.242 146.72V134.8H125.602V158C125.602 158.56 125.696 158.96 125.882 159.2C126.069 159.44 126.389 159.587 126.842 159.64V164C125.909 164.187 125.149 164.28 124.562 164.28C123.602 164.28 122.802 164.04 122.162 163.56C121.549 163.08 121.202 162.453 121.122 161.68L121.042 160.36C120.269 161.667 119.216 162.667 117.882 163.36C116.576 164.053 115.202 164.4 113.762 164.4C112.322 164.4 110.989 164.12 109.762 163.56C108.562 163 107.509 162.227 106.602 161.24C105.722 160.253 105.029 159.107 104.522 157.8C104.042 156.467 103.802 155.04 103.802 153.52ZM120.242 156.32V151.32C119.976 150.547 119.549 149.853 118.962 149.24C118.376 148.627 117.722 148.147 117.002 147.8C116.282 147.427 115.562 147.24 114.842 147.24C114.016 147.24 113.269 147.413 112.602 147.76C111.936 148.107 111.349 148.573 110.842 149.16C110.362 149.747 109.989 150.427 109.722 151.2C109.482 151.973 109.362 152.787 109.362 153.64C109.362 154.493 109.496 155.307 109.762 156.08C110.056 156.827 110.469 157.48 111.002 158.04C111.536 158.6 112.149 159.04 112.842 159.36C113.562 159.68 114.336 159.84 115.162 159.84C115.669 159.84 116.176 159.76 116.682 159.6C117.216 159.413 117.709 159.173 118.162 158.88C118.642 158.56 119.056 158.187 119.402 157.76C119.776 157.307 120.056 156.827 120.242 156.32ZM138.783 153.52C138.783 151.493 139.183 149.667 139.983 148.04C140.783 146.387 141.89 145.08 143.303 144.12C144.717 143.16 146.33 142.68 148.143 142.68C149.69 142.68 151.077 143.067 152.303 143.84C153.557 144.587 154.53 145.547 155.223 146.72V134.8H160.583V158C160.583 158.56 160.677 158.96 160.863 159.2C161.05 159.44 161.37 159.587 161.823 159.64V164C160.89 164.187 160.13 164.28 159.543 164.28C158.583 164.28 157.783 164.04 157.143 163.56C156.53 163.08 156.183 162.453 156.103 161.68L156.023 160.36C155.25 161.667 154.197 162.667 152.863 163.36C151.557 164.053 150.183 164.4 148.743 164.4C147.303 164.4 145.97 164.12 144.743 163.56C143.543 163 142.49 162.227 141.583 161.24C140.703 160.253 140.01 159.107 139.503 157.8C139.023 156.467 138.783 155.04 138.783 153.52ZM155.223 156.32V151.32C154.957 150.547 154.53 149.853 153.943 149.24C153.357 148.627 152.703 148.147 151.983 147.8C151.263 147.427 150.543 147.24 149.823 147.24C148.997 147.24 148.25 147.413 147.583 147.76C146.917 148.107 146.33 148.573 145.823 149.16C145.343 149.747 144.97 150.427 144.703 151.2C144.463 151.973 144.343 152.787 144.343 153.64C144.343 154.493 144.477 155.307 144.743 156.08C145.037 156.827 145.45 157.48 145.983 158.04C146.517 158.6 147.13 159.04 147.823 159.36C148.543 159.68 149.317 159.84 150.143 159.84C150.65 159.84 151.157 159.76 151.663 159.6C152.197 159.413 152.69 159.173 153.143 158.88C153.623 158.56 154.037 158.187 154.383 157.76C154.757 157.307 155.037 156.827 155.223 156.32ZM175.045 164V143.04H180.405V164H175.045ZM175.045 140.12V134.8H180.405V140.12H175.045ZM213.92 164H208.56V152.24C208.56 150.56 208.267 149.333 207.68 148.56C207.093 147.787 206.28 147.4 205.24 147.4C204.52 147.4 203.787 147.587 203.04 147.96C202.32 148.333 201.667 148.853 201.08 149.52C200.493 150.16 200.067 150.907 199.8 151.76V164H194.44V143.04H199.28V146.92C199.813 146.013 200.493 145.253 201.32 144.64C202.147 144 203.093 143.52 204.16 143.2C205.253 142.853 206.4 142.68 207.6 142.68C208.907 142.68 209.973 142.92 210.8 143.4C211.653 143.853 212.293 144.48 212.72 145.28C213.173 146.053 213.48 146.933 213.64 147.92C213.827 148.907 213.92 149.907 213.92 150.92V164ZM235.981 164.12C234.594 164.12 233.314 163.853 232.141 163.32C230.994 162.76 229.994 161.987 229.141 161C228.314 160.013 227.674 158.88 227.221 157.6C226.767 156.32 226.541 154.96 226.541 153.52C226.541 152 226.781 150.587 227.261 149.28C227.741 147.973 228.407 146.827 229.261 145.84C230.141 144.827 231.167 144.053 232.341 143.52C233.541 142.96 234.861 142.68 236.301 142.68C237.927 142.68 239.354 143.053 240.581 143.8C241.807 144.52 242.821 145.493 243.621 146.72V143.04H248.301V163C248.301 165.08 247.794 166.853 246.781 168.32C245.794 169.813 244.421 170.947 242.661 171.72C240.901 172.52 238.901 172.92 236.661 172.92C234.394 172.92 232.474 172.533 230.901 171.76C229.327 171.013 227.981 169.947 226.861 168.56L229.781 165.72C230.581 166.707 231.581 167.48 232.781 168.04C234.007 168.6 235.301 168.88 236.661 168.88C237.807 168.88 238.847 168.667 239.781 168.24C240.741 167.84 241.501 167.2 242.061 166.32C242.647 165.467 242.941 164.36 242.941 163V160.36C242.247 161.56 241.261 162.493 239.981 163.16C238.727 163.8 237.394 164.12 235.981 164.12ZM237.781 159.84C238.367 159.84 238.927 159.747 239.461 159.56C239.994 159.373 240.487 159.12 240.941 158.8C241.394 158.48 241.794 158.107 242.141 157.68C242.487 157.227 242.754 156.773 242.941 156.32V151.32C242.621 150.493 242.167 149.773 241.581 149.16C241.021 148.547 240.381 148.08 239.661 147.76C238.967 147.413 238.234 147.24 237.461 147.24C236.634 147.24 235.887 147.413 235.221 147.76C234.554 148.107 233.981 148.6 233.501 149.24C233.021 149.853 232.647 150.547 232.381 151.32C232.141 152.067 232.021 152.853 232.021 153.68C232.021 154.533 232.167 155.333 232.461 156.08C232.754 156.827 233.154 157.48 233.661 158.04C234.194 158.6 234.807 159.04 235.501 159.36C236.221 159.68 236.981 159.84 237.781 159.84ZM270.052 164.4C268.266 164.4 266.559 164.107 264.932 163.52C263.306 162.933 261.906 162.067 260.732 160.92L262.652 157.44C263.906 158.453 265.132 159.2 266.332 159.68C267.559 160.16 268.732 160.4 269.852 160.4C270.892 160.4 271.719 160.213 272.332 159.84C272.972 159.467 273.292 158.907 273.292 158.16C273.292 157.653 273.119 157.267 272.772 157C272.426 156.707 271.919 156.453 271.252 156.24C270.612 156.027 269.826 155.787 268.892 155.52C267.346 155.013 266.052 154.52 265.012 154.04C263.972 153.56 263.186 152.96 262.652 152.24C262.146 151.493 261.892 150.547 261.892 149.4C261.892 148.013 262.239 146.827 262.932 145.84C263.652 144.827 264.639 144.04 265.892 143.48C267.172 142.92 268.666 142.64 270.372 142.64C271.866 142.64 273.279 142.88 274.612 143.36C275.946 143.813 277.159 144.56 278.252 145.6L276.092 149C275.026 148.173 274.012 147.573 273.052 147.2C272.092 146.8 271.119 146.6 270.132 146.6C269.572 146.6 269.039 146.667 268.532 146.8C268.052 146.933 267.652 147.16 267.332 147.48C267.039 147.773 266.892 148.2 266.892 148.76C266.892 149.267 267.026 149.667 267.292 149.96C267.586 150.227 268.012 150.467 268.572 150.68C269.159 150.893 269.866 151.133 270.692 151.4C272.372 151.88 273.786 152.373 274.932 152.88C276.106 153.387 276.986 154.013 277.572 154.76C278.159 155.48 278.452 156.48 278.452 157.76C278.452 159.84 277.692 161.467 276.172 162.64C274.652 163.813 272.612 164.4 270.052 164.4Z" fill="white"/>
</svg>
