<svg width="300" height="300" viewBox="0 0 300 300" fill="none" xmlns="http://www.w3.org/2000/svg">
<rect width="300" height="300" fill="#B67342"/>
<path d="M85.68 159.16V164H65.96V135.6H85.32V140.44H71.48V147.28H83.44V151.76H71.48V159.16H85.68ZM103.952 164L96.2319 143.04H101.792L107.072 159.12L112.392 143.04H117.472L109.792 164H103.952ZM138.521 164.4C136.841 164.4 135.321 164.12 133.961 163.56C132.601 162.973 131.441 162.187 130.481 161.2C129.521 160.187 128.774 159.04 128.241 157.76C127.734 156.453 127.481 155.08 127.481 153.64C127.481 151.64 127.921 149.813 128.801 148.16C129.708 146.507 130.988 145.187 132.641 144.2C134.321 143.187 136.294 142.68 138.561 142.68C140.854 142.68 142.814 143.187 144.441 144.2C146.068 145.187 147.308 146.507 148.161 148.16C149.041 149.787 149.481 151.547 149.481 153.44C149.481 153.76 149.468 154.093 149.441 154.44C149.414 154.76 149.388 155.027 149.361 155.24H133.161C133.268 156.307 133.574 157.24 134.081 158.04C134.614 158.84 135.281 159.453 136.081 159.88C136.908 160.28 137.788 160.48 138.721 160.48C139.788 160.48 140.788 160.227 141.721 159.72C142.681 159.187 143.334 158.493 143.681 157.64L148.281 158.92C147.774 159.987 147.041 160.933 146.081 161.76C145.148 162.587 144.041 163.24 142.761 163.72C141.481 164.173 140.068 164.4 138.521 164.4ZM133.041 151.84H144.001C143.894 150.773 143.588 149.853 143.081 149.08C142.601 148.28 141.961 147.667 141.161 147.24C140.361 146.787 139.468 146.56 138.481 146.56C137.521 146.56 136.641 146.787 135.841 147.24C135.068 147.667 134.428 148.28 133.921 149.08C133.441 149.853 133.148 150.773 133.041 151.84ZM181.426 164H176.066V152.24C176.066 150.56 175.773 149.333 175.186 148.56C174.6 147.787 173.786 147.4 172.746 147.4C172.026 147.4 171.293 147.587 170.546 147.96C169.826 148.333 169.173 148.853 168.586 149.52C168 150.16 167.573 150.907 167.306 151.76V164H161.946V143.04H166.786V146.92C167.32 146.013 168 145.253 168.826 144.64C169.653 144 170.6 143.52 171.666 143.2C172.76 142.853 173.906 142.68 175.106 142.68C176.413 142.68 177.48 142.92 178.306 143.4C179.16 143.853 179.8 144.48 180.226 145.28C180.68 146.053 180.986 146.933 181.146 147.92C181.333 148.907 181.426 149.907 181.426 150.92V164ZM207.73 162.92C207.276 163.107 206.73 163.32 206.09 163.56C205.45 163.8 204.756 163.987 204.01 164.12C203.29 164.28 202.556 164.36 201.81 164.36C200.823 164.36 199.916 164.187 199.09 163.84C198.263 163.493 197.596 162.947 197.09 162.2C196.61 161.427 196.37 160.427 196.37 159.2V147.16H193.61V143.04H196.37V136.24H201.73V143.04H206.13V147.16H201.73V157.4C201.756 158.12 201.956 158.64 202.33 158.96C202.703 159.28 203.17 159.44 203.73 159.44C204.29 159.44 204.836 159.347 205.37 159.16C205.903 158.973 206.33 158.813 206.65 158.68L207.73 162.92ZM227.441 164.4C225.655 164.4 223.948 164.107 222.321 163.52C220.695 162.933 219.295 162.067 218.121 160.92L220.041 157.44C221.295 158.453 222.521 159.2 223.721 159.68C224.948 160.16 226.121 160.4 227.241 160.4C228.281 160.4 229.108 160.213 229.721 159.84C230.361 159.467 230.681 158.907 230.681 158.16C230.681 157.653 230.508 157.267 230.161 157C229.815 156.707 229.308 156.453 228.641 156.24C228.001 156.027 227.215 155.787 226.281 155.52C224.735 155.013 223.441 154.52 222.401 154.04C221.361 153.56 220.575 152.96 220.041 152.24C219.535 151.493 219.281 150.547 219.281 149.4C219.281 148.013 219.628 146.827 220.321 145.84C221.041 144.827 222.028 144.04 223.281 143.48C224.561 142.92 226.055 142.64 227.761 142.64C229.255 142.64 230.668 142.88 232.001 143.36C233.335 143.813 234.548 144.56 235.641 145.6L233.481 149C232.415 148.173 231.401 147.573 230.441 147.2C229.481 146.8 228.508 146.6 227.521 146.6C226.961 146.6 226.428 146.667 225.921 146.8C225.441 146.933 225.041 147.16 224.721 147.48C224.428 147.773 224.281 148.2 224.281 148.76C224.281 149.267 224.415 149.667 224.681 149.96C224.975 150.227 225.401 150.467 225.961 150.68C226.548 150.893 227.255 151.133 228.081 151.4C229.761 151.88 231.175 152.373 232.321 152.88C233.495 153.387 234.375 154.013 234.961 154.76C235.548 155.48 235.841 156.48 235.841 157.76C235.841 159.84 235.081 161.467 233.561 162.64C232.041 163.813 230.001 164.4 227.441 164.4Z" fill="white"/>
</svg>
